<svg xmlns="http://www.w3.org/2000/svg" xmlns:xlink="http://www.w3.org/1999/xlink" width="230" height="87.282" viewBox="0 0 230 87.282">
  <defs>
    <clipPath id="clip-ITC-logo">
      <rect width="230" height="87.282"/>
    </clipPath>
  </defs>
  <g id="ITC-logo" clip-path="url(#clip-ITC-logo)">
    <g id="Layer-1" transform="translate(-210.693 -85.55)">
      <g id="Group_3" data-name="Group 3" transform="translate(297.325 92.55)">
        <path id="Path_92" data-name="Path 92" d="M-1108.294,68.689h2.4v-6.7a13.223,13.223,0,0,0-.165-2.332,9.223,9.223,0,0,0,1.052,2.069l5.335,6.962h2.462V56.95h-2.4v6.567a13.2,13.2,0,0,0,.166,2.315,9.09,9.09,0,0,0-1.051-2.052l-5.188-6.83h-2.61Zm-2.119-5.846a5.963,5.963,0,0,0-1.822-4.35,6.4,6.4,0,0,0-4.433-1.806,6.44,6.44,0,0,0-4.449,1.806,5.94,5.94,0,0,0-1.822,4.35,5.972,5.972,0,0,0,2.281,4.745,6.43,6.43,0,0,0,3.99,1.415,6.39,6.39,0,0,0,4.433-1.809,5.955,5.955,0,0,0,1.822-4.351m-6.255,3.924a3.677,3.677,0,0,1-3.695-3.924,3.738,3.738,0,0,1,3.695-3.94,3.746,3.746,0,0,1,3.678,3.94,3.7,3.7,0,0,1-3.678,3.924m-10.951,1.921h2.512V56.95h-2.512Zm-10-1.494A3.96,3.96,0,0,0-1133.875,69c2.627,0,4.154-1.5,4.154-3.615,0-1.478-.953-2.594-2.923-3.5-1.313-.591-2.364-.854-2.364-1.937,0-.772.64-1.346,1.658-1.346a1.834,1.834,0,0,1,1.757,1.018l1.476-1.412a3.643,3.643,0,0,0-3.2-1.543c-2.545,0-4.137,1.462-4.137,3.316,0,1.642,1,2.5,2.726,3.4,1.609.838,2.578,1.051,2.578,2.086,0,.919-.689,1.543-1.9,1.543a2.287,2.287,0,0,1-2.168-1.4Zm-4.431,1.494h2.511V56.95h-2.511Zm-8.063,0h2.381l4.366-11.739h-2.741l-2.315,7.241a14.36,14.36,0,0,0-.476,2.3c-.247-1.265-.427-2-.493-2.216l-2.282-7.323h-2.778Zm-8.159,0h2.512V56.95h-2.512Zm-9.9-2.119V59.084h1.4c2.528,0,3.776,1.068,3.776,3.743,0,2.66-1.216,3.743-3.776,3.743Zm-2.512,2.119h3.4a7.34,7.34,0,0,0,4.663-1.084,5.57,5.57,0,0,0,2.2-4.762,5.622,5.622,0,0,0-2.168-4.744c-1.3-.969-2.841-1.15-4.892-1.15h-3.2Zm-14.991-1.494A3.959,3.959,0,0,0-1181.93,69c2.628,0,4.154-1.5,4.154-3.615,0-1.478-.953-2.594-2.923-3.5-1.315-.591-2.365-.854-2.365-1.937,0-.772.641-1.346,1.659-1.346a1.829,1.829,0,0,1,1.756,1.018l1.478-1.412a3.647,3.647,0,0,0-3.2-1.543c-2.545,0-4.137,1.462-4.137,3.316,0,1.642,1,2.5,2.726,3.4,1.609.838,2.577,1.051,2.577,2.086,0,.919-.688,1.543-1.9,1.543a2.287,2.287,0,0,1-2.168-1.4Zm-.706,1.494-3.234-5.336A2.983,2.983,0,0,0-1187,60.283c0-2.217-1.414-3.334-4.27-3.334h-3.595V68.689h2.511V63.205l3.088,5.484Zm-5.977-6.731V58.87h.378c1.593,0,2.5.23,2.5,1.593s-.937,1.495-2.5,1.495Zm-11.886,6.731h6.913V66.554h-4.4V63.616h4.4V61.481h-4.4V59.068h4.4V56.95h-6.913Zm-6.6-6.436V58.8h.361c1.33,0,1.954.476,1.954,1.658,0,1.3-.642,1.789-1.954,1.789Zm-2.528,6.436h2.528V64.207h.689c2.661,0,4.187-1.412,4.187-3.645,0-2.512-1.511-3.612-4.515-3.612h-2.889ZM-1219,64.223h-3.251l1.265-3.744a15.589,15.589,0,0,0,.344-1.625,14.309,14.309,0,0,0,.329,1.577Zm-7.473,4.466h2.7l.821-2.5h4.548l.952,2.5h2.857l-4.531-11.739h-2.874Zm-4.364-6.436V58.8h.36c1.331,0,1.954.476,1.954,1.658,0,1.3-.641,1.789-1.954,1.789Zm-2.529,6.436h2.529V64.207h.689c2.659,0,4.187-1.412,4.187-3.645,0-2.512-1.512-3.612-4.516-3.612h-2.889Zm75.74-20.018h2.512V43.317l3.958-6.386h-2.923l-1.724,3.2a7.665,7.665,0,0,0-.574,1.478,8.344,8.344,0,0,0-.542-1.461l-1.74-3.218h-2.942l3.976,6.386Zm-6.927-9.605h2.889V36.931h-8.275v2.134h2.873V48.67h2.512Zm-11.559,9.605h6.518V46.536h-4V36.931h-2.513Zm-5.632-4.465H-1185l1.265-3.744a16.048,16.048,0,0,0,.343-1.625,15,15,0,0,0,.329,1.576Zm-7.472,4.465h2.694l.822-2.5h4.548l.952,2.5h2.856l-4.531-11.739h-2.874Zm-3.789,0h2.511V36.931h-2.511Zm-2.381-8.686.081-2.512a8.085,8.085,0,0,0-3.594-.821,6.066,6.066,0,0,0-6.452,6.157,6.067,6.067,0,0,0,6.4,6.176,6.839,6.839,0,0,0,3.53-.938l.015-2.578a5,5,0,0,1-3.513,1.363c-2.429,0-3.857-1.593-3.857-4.023a3.853,3.853,0,0,1,4.1-4.137,4.741,4.741,0,0,1,3.284,1.313m-18.831,8.686h6.912V46.536h-4.4V43.6h4.4V41.462h-4.4V39.049h4.4V36.931h-6.912Zm-6.6-6.436V38.787h.361c1.33,0,1.954.476,1.954,1.658,0,1.3-.641,1.79-1.954,1.79Zm-2.528,6.436h2.528V44.189h.69c2.66,0,4.186-1.413,4.186-3.645,0-2.512-1.511-3.612-4.515-3.612h-2.89Zm-9.949-1.494a3.958,3.958,0,0,0,3.742,1.808c2.628,0,4.155-1.5,4.155-3.615,0-1.477-.952-2.594-2.923-3.5-1.314-.591-2.365-.854-2.365-1.937,0-.772.641-1.346,1.658-1.346a1.83,1.83,0,0,1,1.757,1.018l1.478-1.412a3.647,3.647,0,0,0-3.2-1.544c-2.545,0-4.137,1.462-4.137,3.317,0,1.642,1,2.5,2.725,3.4,1.609.837,2.578,1.05,2.578,2.084,0,.92-.69,1.543-1.9,1.543A2.286,2.286,0,0,1-1231.9,45.6Zm29.452-20.359V19.331h1.4c2.528,0,3.776,1.068,3.776,3.744,0,2.659-1.216,3.743-3.776,3.743Zm-2.511,2.119h3.4a7.337,7.337,0,0,0,4.662-1.084,5.57,5.57,0,0,0,2.2-4.761,5.621,5.621,0,0,0-2.166-4.744c-1.3-.968-2.841-1.15-4.893-1.15h-3.2Zm-13.693,0h2.4v-6.7a13.259,13.259,0,0,0-.164-2.331,9.3,9.3,0,0,0,1.051,2.069l5.335,6.961h2.463V17.2h-2.4v6.567a13.275,13.275,0,0,0,.164,2.315,9.076,9.076,0,0,0-1.051-2.053l-5.188-6.829h-2.61Zm-5.631-4.466h-3.25l1.264-3.744a15.779,15.779,0,0,0,.345-1.625,14.87,14.87,0,0,0,.328,1.576Zm-7.473,4.466h2.695l.821-2.5h4.547l.953,2.5h2.857l-4.531-11.739h-2.874Zm105.341-21.512a3.96,3.96,0,0,0,3.743,1.808c2.627,0,4.154-1.5,4.154-3.615,0-1.477-.952-2.594-2.923-3.5-1.313-.591-2.363-.854-2.363-1.937,0-.772.639-1.347,1.657-1.347a1.832,1.832,0,0,1,1.757,1.018l1.478-1.412a3.647,3.647,0,0,0-3.2-1.544c-2.546,0-4.137,1.461-4.137,3.316,0,1.642,1,2.5,2.725,3.4,1.61.837,2.578,1.051,2.578,2.085,0,.92-.69,1.544-1.9,1.544a2.289,2.289,0,0,1-2.168-1.395Zm-9.1-.625V-.687h1.4c2.528,0,3.775,1.067,3.775,3.743,0,2.66-1.215,3.743-3.775,3.743Zm-2.513,2.119h3.4a7.341,7.341,0,0,0,4.662-1.084,5.574,5.574,0,0,0,2.2-4.761,5.619,5.619,0,0,0-2.168-4.745c-1.3-.969-2.84-1.149-4.893-1.149h-3.2Zm-1.46,0-3.235-5.336A2.983,2.983,0,0,0-1141.5.512c0-2.216-1.413-3.333-4.269-3.333h-3.595V8.919h2.512V3.434l3.086,5.484Zm-5.976-6.732V-.9h.378c1.592,0,2.494.23,2.494,1.593s-.935,1.494-2.494,1.494ZM-1155,4.452h-3.252l1.264-3.743a15.347,15.347,0,0,0,.346-1.626,14.83,14.83,0,0,0,.327,1.576Zm-7.474,4.467h2.7l.821-2.5h4.548l.952,2.5h2.857l-4.531-11.739h-2.874Zm-.408-5.845a5.969,5.969,0,0,0-1.822-4.35,6.4,6.4,0,0,0-4.433-1.806,6.435,6.435,0,0,0-4.449,1.806,5.934,5.934,0,0,0-1.823,4.35,5.974,5.974,0,0,0,2.282,4.745,6.426,6.426,0,0,0,3.99,1.415,6.4,6.4,0,0,0,4.433-1.808,5.952,5.952,0,0,0,1.822-4.351M-1169.135,7a3.676,3.676,0,0,1-3.695-3.923,3.738,3.738,0,0,1,3.695-3.941,3.746,3.746,0,0,1,3.677,3.941A3.7,3.7,0,0,1-1169.135,7m-13.053-.033V3.812h1.018c1.248,0,1.889.558,1.889,1.527,0,1.05-.642,1.625-1.922,1.625Zm0-5.089V-.884h.607c1.412,0,2.036.312,2.036,1.363,0,1.084-.689,1.4-2.085,1.4Zm-2.512,7.044h1.921a9.194,9.194,0,0,0,4.416-.657,3.018,3.018,0,0,0,1.56-2.692c0-1.576-.969-2.545-2.873-2.824q2.462-.419,2.463-2.512a2.752,2.752,0,0,0-1.428-2.479,8.148,8.148,0,0,0-3.858-.575h-2.2Zm-1.461,0-3.234-5.336a2.985,2.985,0,0,0,2.611-3.071c0-2.216-1.415-3.333-4.27-3.333h-3.594V8.919h2.512V3.434l3.086,5.484Zm-5.976-6.732V-.9h.377c1.593,0,2.5.23,2.5,1.593s-.936,1.494-2.5,1.494Zm-11.888,6.732h6.913V6.783h-4.4V3.845h4.4V1.711h-4.4V-.7h4.4V-2.821h-6.913Zm-6.6-6.437V-.966h.361c1.329,0,1.954.476,1.954,1.658,0,1.3-.641,1.789-1.954,1.789Zm-2.529,6.437h2.529V4.435h.69c2.659,0,4.187-1.412,4.187-3.644,0-2.512-1.511-3.612-4.515-3.612h-2.89Zm-5.631-4.467h-3.251l1.264-3.743a15.549,15.549,0,0,0,.345-1.626A14.825,14.825,0,0,0-1220.1.66Zm-7.474,4.467h2.7l.82-2.5h4.547l.953,2.5h2.857l-4.531-11.739h-2.874Zm-4.364-6.437V-.966h.362c1.33,0,1.953.476,1.953,1.658,0,1.3-.641,1.789-1.953,1.789Zm-2.528,6.437h2.528V4.435h.69c2.66,0,4.187-1.412,4.187-3.644,0-2.512-1.511-3.612-4.514-3.612h-2.89Z" transform="translate(1233.368 3.1)" fill="#002e6e" fill-rule="evenodd"/>
      </g>
      <g id="Group_4" data-name="Group 4" transform="translate(289.943 164.653) rotate(180)">
        <rect id="Rectangle_1" data-name="Rectangle 1" width="1.681" height="71.824" transform="translate(0 0)" fill="#002e6e"/>
      </g>
      <g id="Group_5" data-name="Group 5" transform="translate(218.694 158.002)">
        <path id="Path_93" data-name="Path 93" d="M0,6.586V6.338a1.251,1.251,0,0,0,.565-.114.606.606,0,0,0,.258-.571V.933A.592.592,0,0,0,.556.361,1.37,1.37,0,0,0,0,.247V0H5.334V1.965H5.108a2.147,2.147,0,0,0-.6-1.29A2.514,2.514,0,0,0,2.97.328a1,1,0,0,0-.54.093A.46.46,0,0,0,2.315.79V3.045a1.394,1.394,0,0,0,1.071-.3,2.376,2.376,0,0,0,.43-1.14H4.05V4.9H3.815a2.152,2.152,0,0,0-.4-1.172,1.431,1.431,0,0,0-1.1-.341v2.36a.5.5,0,0,0,.151.421,1.156,1.156,0,0,0,.622.112,2.621,2.621,0,0,0,1.446-.362,2.976,2.976,0,0,0,.995-1.356h.257L5.411,6.586Z" fill="#002e6e"/>
      </g>
      <g id="Group_6" data-name="Group 6" transform="translate(224.868 159.986)">
        <path id="Path_94" data-name="Path 94" d="M0,2.069a.67.67,0,0,0,.373-.145.611.611,0,0,0,.12-.445V-1.386A.659.659,0,0,0,.4-1.8.623.623,0,0,0,0-1.952v-.233H1.754v.7a1.934,1.934,0,0,1,.563-.582A1.318,1.318,0,0,1,3.074-2.3,1.261,1.261,0,0,1,4-1.976,1.573,1.573,0,0,1,4.327-.839V1.516a.589.589,0,0,0,.106.423.675.675,0,0,0,.355.129V2.3H2.613V2.069a.691.691,0,0,0,.338-.143.623.623,0,0,0,.091-.409V-.844a1.527,1.527,0,0,0-.063-.5.422.422,0,0,0-.43-.3.646.646,0,0,0-.441.183,1.641,1.641,0,0,0-.31.369V1.516a.621.621,0,0,0,.09.409.693.693,0,0,0,.339.143V2.3H0Z" transform="translate(0 2.3)" fill="#002e6e"/>
      </g>
      <g id="Group_7" data-name="Group 7" transform="translate(230.103 158.001)">
        <path id="Path_95" data-name="Path 95" d="M-4.628-37.493a1.552,1.552,0,0,1,1.254-.668,1.139,1.139,0,0,1,.651.191,2.515,2.515,0,0,1,.443.409v-1.784c0-.247-.046-.4-.136-.458a1.262,1.262,0,0,0-.561-.108v-.233H-.982v5.61a.618.618,0,0,0,.108.417.667.667,0,0,0,.425.144v.224q-.776.081-1,.121c-.151.027-.416.1-.8.207v-.643a2.542,2.542,0,0,1-.48.424,1.354,1.354,0,0,1-.741.219,1.494,1.494,0,0,1-1.18-.605,2.492,2.492,0,0,1-.5-1.641,2.892,2.892,0,0,1,.522-1.825m2.111,3.237a.845.845,0,0,0,.238-.394v-2.37a.668.668,0,0,0-.2-.352.68.68,0,0,0-.54-.233q-.495,0-.671.718a4.809,4.809,0,0,0-.1,1.09A5.277,5.277,0,0,0-3.7-34.664q.167.69.644.69a.7.7,0,0,0,.538-.281" transform="translate(5.15 40.146)" fill="#002e6e"/>
      </g>
      <g id="Group_8" data-name="Group 8" transform="translate(235.165 160.1)">
        <path id="Path_96" data-name="Path 96" d="M-15.463-45.608V-42.3a1.027,1.027,0,0,0,.068.433.463.463,0,0,0,.464.243.753.753,0,0,0,.434-.147,2.038,2.038,0,0,0,.308-.271v-2.765a.621.621,0,0,0-.116-.429.685.685,0,0,0-.464-.137v-.233h1.844V-42.1a.614.614,0,0,0,.109.418.666.666,0,0,0,.425.144v.224q-.859.086-1.083.127a6.076,6.076,0,0,0-.716.2v-.643a3.375,3.375,0,0,1-.548.424,1.561,1.561,0,0,1-.791.219,1.334,1.334,0,0,1-.834-.3,1.275,1.275,0,0,1-.386-1.066v-2.46a.607.607,0,0,0-.1-.408.762.762,0,0,0-.366-.158v-.233Z" transform="translate(17.208 45.608)" fill="#002e6e"/>
      </g>
      <g id="Group_9" data-name="Group 9" transform="translate(240.332 159.986)">
        <path id="Path_97" data-name="Path 97" d="M0,2.069a.66.66,0,0,0,.371-.134.562.562,0,0,0,.113-.386l.009-.285v-2.65a.643.643,0,0,0-.1-.417A.638.638,0,0,0,0-1.952v-.233H1.754v.766a3.485,3.485,0,0,1,.584-.642,1.025,1.025,0,0,1,.67-.238.779.779,0,0,1,.514.193.7.7,0,0,1,.229.565.7.7,0,0,1-.16.471.53.53,0,0,1-.42.185.625.625,0,0,1-.51-.29q-.214-.291-.3-.291a.508.508,0,0,0-.374.241A1.1,1.1,0,0,0,1.8-.538V1.307c0,.322.043.522.133.6a.963.963,0,0,0,.531.159V2.3H0Z" transform="translate(0 2.3)" fill="#002e6e"/>
      </g>
      <g id="Group_10" data-name="Group 10" transform="translate(244.423 157.854)">
        <path id="Path_98" data-name="Path 98" d="M0,4.2a.664.664,0,0,0,.334-.129A.621.621,0,0,0,.47,3.61V.745A.638.638,0,0,0,.376.34.67.67,0,0,0,0,.179V-.054H1.777v3.7a.627.627,0,0,0,.09.409.694.694,0,0,0,.339.143v.233H0ZM.617-2.079A.676.676,0,0,1,1.126-2.3a.671.671,0,0,1,.5.221.751.751,0,0,1,.21.535.748.748,0,0,1-.21.535.67.67,0,0,1-.5.222.675.675,0,0,1-.508-.222.747.747,0,0,1-.21-.535.749.749,0,0,1,.21-.535" transform="translate(0 2.3)" fill="#002e6e"/>
      </g>
      <g id="Group_11" data-name="Group 11" transform="translate(246.995 159.986)">
        <path id="Path_99" data-name="Path 99" d="M0,2.069a.673.673,0,0,0,.372-.145.607.607,0,0,0,.12-.445V-1.386A.653.653,0,0,0,.4-1.8.615.615,0,0,0,0-1.952v-.233H1.754v.7a1.951,1.951,0,0,1,.562-.582A1.322,1.322,0,0,1,3.074-2.3,1.26,1.26,0,0,1,4-1.976,1.575,1.575,0,0,1,4.326-.839V1.516a.588.588,0,0,0,.106.423.675.675,0,0,0,.355.129V2.3H2.613V2.069a.7.7,0,0,0,.34-.143.628.628,0,0,0,.089-.409V-.844a1.531,1.531,0,0,0-.062-.5.421.421,0,0,0-.43-.3.649.649,0,0,0-.442.183,1.625,1.625,0,0,0-.309.369V1.516a.621.621,0,0,0,.09.409.694.694,0,0,0,.339.143V2.3H0Z" transform="translate(0 2.3)" fill="#002e6e"/>
      </g>
      <g id="Group_12" data-name="Group 12" transform="translate(252.207 159.986)">
        <path id="Path_100" data-name="Path 100" d="M-1.464-7.773A.85.85,0,0,1-.893-8.06v-.067a1.279,1.279,0,0,1-.393-.224A.715.715,0,0,1-1.5-8.9a.889.889,0,0,1,.341-.7A2.154,2.154,0,0,1-.5-10v-.066a1.871,1.871,0,0,1-.759-.572,1.417,1.417,0,0,1-.289-.9,1.385,1.385,0,0,1,.507-1.1,2.035,2.035,0,0,1,1.369-.433A2.536,2.536,0,0,1,.93-13a2.286,2.286,0,0,1,.42.138H2.57v.518H1.819a1.3,1.3,0,0,1,.28.433,1.481,1.481,0,0,1,.1.538,1.242,1.242,0,0,1-.828,1.251,2.8,2.8,0,0,1-1.08.181c-.093,0-.155,0-.183-.005s-.071-.005-.128-.005A.609.609,0,0,0-.309-9.8a.409.409,0,0,0-.154.319.314.314,0,0,0,.078.228.354.354,0,0,0,.211.1c.046.005.142.011.289.016s.262.007.344.007l.6.01a2.319,2.319,0,0,1,.859.157,1.027,1.027,0,0,1,.665,1.023,1.316,1.316,0,0,1-1,1.309,4.015,4.015,0,0,1-1.32.186A4.139,4.139,0,0,1-.853-6.581q-.777-.224-.777-.761a.72.72,0,0,1,.165-.431m.953.839a1.828,1.828,0,0,0,.884.172,3.461,3.461,0,0,0,.849-.086c.42-.108.628-.307.628-.6a.433.433,0,0,0-.178-.38,1.188,1.188,0,0,0-.649-.127H-.5a1.407,1.407,0,0,0-.208.21.57.57,0,0,0-.113.334.526.526,0,0,0,.305.473m.323-3.734a.523.523,0,0,0,.52.428.478.478,0,0,0,.479-.321A2.587,2.587,0,0,0,.942-11.5,2.451,2.451,0,0,0,.8-12.457a.482.482,0,0,0-.472-.3.475.475,0,0,0-.488.321,2.762,2.762,0,0,0-.122.935,2.842,2.842,0,0,0,.09.833" transform="translate(1.629 13.071)" fill="#002e6e"/>
      </g>
      <g id="Group_13" data-name="Group 13" transform="translate(258.924 158.002)">
        <path id="Path_101" data-name="Path 101" d="M-27.516-66.721v.238a2.579,2.579,0,0,0-.644.087c-.1.041-.147.14-.147.3a.849.849,0,0,0,.012.141.7.7,0,0,0,.043.14l1.468,3.606H-26.8l1.214-3.3c.027-.074.05-.149.071-.225a1.1,1.1,0,0,0,.055-.3q0-.277-.156-.346a2.231,2.231,0,0,0-.635-.1v-.238h1.97v.238a.827.827,0,0,0-.508.206,1.7,1.7,0,0,0-.328.593l-2.111,5.729h-.244l-2.381-5.838a1.637,1.637,0,0,0-.3-.507.734.734,0,0,0-.472-.183v-.238Z" transform="translate(30.621 66.721)" fill="#002e6e"/>
      </g>
      <g id="Group_14" data-name="Group 14" transform="translate(264.846 159.986)">
        <path id="Path_102" data-name="Path 102" d="M-5.324-18a8.012,8.012,0,0,1,1.885-.777v-.709a.977.977,0,0,0-.175-.64.771.771,0,0,0-.617-.207.779.779,0,0,0-.409.1.285.285,0,0,0-.16.245.227.227,0,0,0,.018.1.342.342,0,0,0,.055.081l.054.067a.737.737,0,0,1,.1.179.552.552,0,0,1,.038.206.533.533,0,0,1-.174.426.6.6,0,0,1-.4.15.661.661,0,0,1-.454-.166.609.609,0,0,1-.188-.48,1.012,1.012,0,0,1,.5-.888,2.217,2.217,0,0,1,1.235-.327,2.508,2.508,0,0,1,1.315.319,1.283,1.283,0,0,1,.525,1.189v2.36a.308.308,0,0,0,.052.179.147.147,0,0,0,.116.074.21.21,0,0,0,.1-.022.624.624,0,0,0,.133-.116l.14.2a1.508,1.508,0,0,1-.6.466,1.13,1.13,0,0,1-.439.086.7.7,0,0,1-.6-.253.986.986,0,0,1-.158-.425,2.163,2.163,0,0,1-.868.573,1.717,1.717,0,0,1-.578.1,1.141,1.141,0,0,1-.71-.255.941.941,0,0,1-.33-.794A1.186,1.186,0,0,1-5.324-18m1.614,1.255a1.828,1.828,0,0,0,.258-.267v-1.426a1.891,1.891,0,0,0-.652.3,1.059,1.059,0,0,0-.474.887.733.733,0,0,0,.138.484.4.4,0,0,0,.31.165.694.694,0,0,0,.42-.143" transform="translate(5.925 20.642)" fill="#002e6e"/>
      </g>
      <g id="Group_15" data-name="Group 15" transform="translate(269.389 158.002)">
        <path id="Path_103" data-name="Path 103" d="M0,4.052a.743.743,0,0,0,.346-.164.63.63,0,0,0,.1-.425V-1.5a.61.61,0,0,0-.1-.409A.76.76,0,0,0,0-2.067V-2.3H1.754V3.463a.624.624,0,0,0,.1.423.779.779,0,0,0,.352.167v.233H0Z" transform="translate(0 2.3)" fill="#002e6e"/>
      </g>
      <g id="Group_16" data-name="Group 16" transform="translate(271.961 160.1)">
        <path id="Path_104" data-name="Path 104" d="M-15.463-45.608V-42.3a1.036,1.036,0,0,0,.068.433.465.465,0,0,0,.466.243.751.751,0,0,0,.434-.147,2.04,2.04,0,0,0,.307-.271v-2.765a.621.621,0,0,0-.115-.429.686.686,0,0,0-.464-.137v-.233h1.845V-42.1a.615.615,0,0,0,.108.418.666.666,0,0,0,.425.144v.224q-.859.086-1.083.127a5.988,5.988,0,0,0-.717.2v-.643a3.339,3.339,0,0,1-.547.424,1.564,1.564,0,0,1-.791.219,1.333,1.333,0,0,1-.834-.3,1.273,1.273,0,0,1-.387-1.066v-2.46a.6.6,0,0,0-.1-.408.767.767,0,0,0-.366-.158v-.233Z" transform="translate(17.208 45.608)" fill="#002e6e"/>
      </g>
      <g id="Group_17" data-name="Group 17" transform="translate(277.163 159.986)">
        <path id="Path_105" data-name="Path 105" d="M-5.04-40a1.788,1.788,0,0,1,1.369-.621,1.6,1.6,0,0,1,.86.253,1.66,1.66,0,0,1,.621.7,2.784,2.784,0,0,1,.226.876,3.244,3.244,0,0,1,.032.385H-4.3a3.725,3.725,0,0,0,.18,1.014.992.992,0,0,0,.956.8,1.017,1.017,0,0,0,.616-.213,2.813,2.813,0,0,0,.44-.433l.213.138a2.532,2.532,0,0,1-1,1.033,1.839,1.839,0,0,1-.842.186,1.839,1.839,0,0,1-1.28-.567,2.391,2.391,0,0,1-.6-1.808A2.489,2.489,0,0,1-5.04-40m1.968,1.23a4.315,4.315,0,0,0-.128-1.2.461.461,0,0,0-.472-.344.5.5,0,0,0-.5.4,4.062,4.062,0,0,0-.152,1.151Z" transform="translate(5.608 40.617)" fill="#002e6e"/>
      </g>
      <g id="Group_18" data-name="Group 18" transform="translate(221.077 136.697)">
        <path id="Path_106" data-name="Path 106" d="M-126.125-166.017h6.917l-8.816,16.835h-12.335Z" transform="translate(140.358 166.017)" fill="#002e6e" fill-rule="evenodd"/>
      </g>
      <g id="Group_19" data-name="Group 19" transform="translate(242.074 136.697)">
        <path id="Path_107" data-name="Path 107" d="M-105.536-166.017l2.074,5.137h-3.725l2.678,11.7h-11.88l2.678-11.7h-3.735l2.076-5.137Z" transform="translate(117.446 166.017)" fill="#002e6e" fill-rule="evenodd"/>
      </g>
      <g id="Group_20" data-name="Group 20" transform="translate(256.02 136.695)">
        <path id="Path_108" data-name="Path 108" d="M-75.336-110.251c-.344,0-.621.13-.621.459a.554.554,0,0,0,.078.278l2.656,3.764a1.566,1.566,0,0,0,1.4.811h5.1l5.515,6.382H-74.253a1.7,1.7,0,0,1-.213,0,2.84,2.84,0,0,1-2.362-1.6l-6.98-13.461a1.523,1.523,0,0,1-.03-.3,1.418,1.418,0,0,1,1.367-1.468c.044,0,.089,0,.132,0H-75.4l4.373,5.136Z" transform="translate(83.838 115.389)" fill="#002e6e" fill-rule="evenodd"/>
      </g>
      <g id="Group_21" data-name="Group 21" transform="translate(219.202 92.55)">
        <path id="Path_109" data-name="Path 109" d="M-270.094-601.355l-30.481,60.982,27.394-33.665Z" transform="translate(300.575 601.355)" fill="#002e6e" fill-rule="evenodd"/>
      </g>
      <g id="Group_22" data-name="Group 22" transform="translate(249.89 92.55)">
        <path id="Path_110" data-name="Path 110" d="M0-601.355l30.48,60.982L3.086-574.037Z" transform="translate(0 601.355)" fill="#002e6e" fill-rule="evenodd"/>
      </g>
    </g>
  </g>
</svg>
